<svg width="16" height="14" viewBox="0 0 16 14" fill="none" xmlns="http://www.w3.org/2000/svg">
<path d="M15.0003 0.710938H1.00028C0.921708 0.710938 0.857422 0.775223 0.857422 0.853795V1.99665C0.857422 2.07522 0.921708 2.13951 1.00028 2.13951H15.0003C15.0789 2.13951 15.1431 2.07522 15.1431 1.99665V0.853795C15.1431 0.775223 15.0789 0.710938 15.0003 0.710938ZM15.0003 11.8538H1.00028C0.921708 11.8538 0.857422 11.9181 0.857422 11.9967V13.1395C0.857422 13.2181 0.921708 13.2824 1.00028 13.2824H15.0003C15.0789 13.2824 15.1431 13.2181 15.1431 13.1395V11.9967C15.1431 11.9181 15.0789 11.8538 15.0003 11.8538ZM15.0003 6.28237H1.00028C0.921708 6.28237 0.857422 6.34665 0.857422 6.42522V7.56808C0.857422 7.64665 0.921708 7.71094 1.00028 7.71094H15.0003C15.0789 7.71094 15.1431 7.64665 15.1431 7.56808V6.42522C15.1431 6.34665 15.0789 6.28237 15.0003 6.28237Z" fill="#365272"/>
</svg>
